<?xml version="1.0" encoding="UTF-8"?>
<svg version="1.1" xmlns="http://www.w3.org/2000/svg" width="1254" height="1254">
<path d="M0 0 C413.82 0 827.64 0 1254 0 C1254 413.82 1254 827.64 1254 1254 C840.18 1254 426.36 1254 0 1254 C0 840.18 0 426.36 0 0 Z " fill="#0E0F11" transform="translate(0,0)"/>
<path d="M0 0 C4.95 0 9.9 0 15 0 C15 62.37 15 124.74 15 189 C10.05 189 5.1 189 0 189 C0 180.75 0 172.5 0 164 C-0.66 164 -1.32 164 -2 164 C-2.24878906 164.57105469 -2.49757813 165.14210938 -2.75390625 165.73046875 C-8.58531933 176.35131827 -21.75434407 184.24565428 -33 188 C-41.80453465 190.55651069 -50.25770685 191.27273658 -59.375 191.3125 C-60.74724731 191.32071777 -60.74724731 191.32071777 -62.1472168 191.32910156 C-79.53376424 191.14596895 -95.04229695 183.6859709 -107.6875 171.875 C-117.07165887 161.92881347 -122.43928641 151.07024987 -126 138 C-126.36480469 136.74058594 -126.72960937 135.48117187 -127.10546875 134.18359375 C-131.38777738 116.65757557 -127.26609487 97.893762 -118.3359375 82.58203125 C-108.60456656 67.01267594 -92.78578264 55.52788239 -75 51 C-55.37211984 46.82760631 -33.89595297 50.19054237 -17 61 C-12.70356519 64.35601869 -8.82880048 68.12804073 -5 72 C-4.39542969 72.56203125 -3.79085937 73.1240625 -3.16796875 73.703125 C-2 75 -2 75 -2 77 C-1.34 77 -0.68 77 0 77 C0 51.59 0 26.18 0 0 Z M-99.55859375 83.0546875 C-110.16395802 95.84899896 -114.48587379 110.47636741 -113 127 C-112.3127852 131.12823281 -111.29031258 135.02200574 -110 139 C-109.63455078 140.24136719 -109.63455078 140.24136719 -109.26171875 141.5078125 C-104.80648603 154.64124736 -94.98197546 164.50244623 -83 171 C-68.40874357 177.92880892 -52.65750008 177.96866544 -37.36328125 173.25390625 C-21.95417173 167.5090466 -11.45129623 157.55287399 -4.4609375 142.73828125 C0.72447823 129.5719603 1.69788099 112.78513305 -3.7421875 99.52734375 C-11.97482263 82.98537192 -22.61065949 73.45289545 -39.95703125 66.9453125 C-61.41768792 60.27845895 -84.36831995 66.82519555 -99.55859375 83.0546875 Z " fill="#F0F0ED" transform="translate(911,524)"/>
<path d="M0 0 C2.31 0 4.62 0 7 0 C7 17.49 7 34.98 7 53 C12.28 53 17.56 53 23 53 C23 108.44 23 163.88 23 221 C17.72 221 12.44 221 7 221 C7 235.19 7 249.38 7 264 C4.69 264 2.38 264 0 264 C0 249.81 0 235.62 0 221 C-5.28 221 -10.56 221 -16 221 C-16 165.56 -16 110.12 -16 53 C-10.72 53 -5.44 53 0 53 C0 35.51 0 18.02 0 0 Z " fill="#79B48B" transform="translate(983,487)"/>
<path d="M0 0 C1.01940674 0.00491455 2.03881348 0.0098291 3.08911133 0.01489258 C24.03643264 0.34003209 40.31159494 8.44312922 54.9765625 23.17578125 C56.8125 25.3125 56.8125 25.3125 56.8125 27.3125 C57.4725 27.3125 58.1325 27.3125 58.8125 27.3125 C58.8125 19.0625 58.8125 10.8125 58.8125 2.3125 C63.7625 2.3125 68.7125 2.3125 73.8125 2.3125 C73.8125 47.5225 73.8125 92.7325 73.8125 139.3125 C68.8625 139.3125 63.9125 139.3125 58.8125 139.3125 C58.4825 131.3925 58.1525 123.4725 57.8125 115.3125 C56.53375 116.818125 55.255 118.32375 53.9375 119.875 C41.92158996 133.16760048 24.87513216 140.78123815 7.0078125 141.69921875 C-4.29523354 142.02038362 -14.62868398 141.68589348 -25.1875 137.3125 C-26.21746094 136.88839844 -27.24742187 136.46429687 -28.30859375 136.02734375 C-43.67764202 128.9986962 -56.81539069 116.21638492 -62.96289062 100.30566406 C-70.38373219 79.14941258 -70.66792537 58.44947449 -61.68359375 37.8671875 C-53.30466725 20.78629156 -39.48777569 10.27471458 -22.1015625 3.28515625 C-14.53204513 0.75860152 -7.95694849 -0.04519133 0 0 Z M-40.15625 32.80859375 C-49.44443474 44.25806763 -53.49288919 56.41009304 -53.625 71 C-53.63523193 71.86681396 -53.64546387 72.73362793 -53.65600586 73.62670898 C-53.46267205 87.87257187 -47.24749643 100.91624745 -37.48046875 111.125 C-31.99706759 116.35618339 -26.17900585 120.37214707 -19.1875 123.3125 C-18.50816406 123.61285156 -17.82882812 123.91320312 -17.12890625 124.22265625 C-11.34267001 126.37870615 -5.73066758 126.59424991 0.375 126.625 C1.56186401 126.63321777 1.56186401 126.63321777 2.77270508 126.64160156 C18.3791745 126.45401992 32.24082964 120.63846474 43.5625 109.9375 C50.20468073 103.031871 50.20468073 103.031871 52.8125 94.3125 C53.4725 94.3125 54.1325 94.3125 54.8125 94.3125 C60.30043785 79.29417007 61.36982615 63.22479935 54.8125 48.3125 C49.02650324 36.31842768 40.35381238 27.76256281 28.8125 21.3125 C27.77802734 20.69568359 27.77802734 20.69568359 26.72265625 20.06640625 C5.44362015 8.18669898 -24.24077958 15.76866075 -40.15625 32.80859375 Z " fill="#F2F1EF" transform="translate(487.1875,573.6875)"/>
<path d="M0 0 C13.41525973 10.38065833 21.93056144 23.42652203 24.60076904 40.28527832 C25.43918686 48.08649909 25.24124143 55.92893213 25.1953125 63.765625 C25.19157486 65.65419361 25.18873144 67.54276419 25.18673706 69.43133545 C25.1791597 74.36319485 25.15956297 79.29493342 25.1373291 84.22674561 C25.1167425 89.27484504 25.10770814 94.3229643 25.09765625 99.37109375 C25.0763106 109.24745702 25.04117765 119.12369948 25 129 C19.72 129 14.44 129 9 129 C8.98541748 126.41687988 8.97083496 123.83375977 8.95581055 121.17236328 C8.9053365 112.61077271 8.83871907 104.04936156 8.76428509 95.48794746 C8.71967338 90.30024919 8.68039714 85.1126278 8.65356445 79.92480469 C8.62743952 74.91257806 8.58697261 69.90064871 8.53681374 64.88860703 C8.52020698 62.98222443 8.50865433 61.07579048 8.50238609 59.16934586 C8.44517467 43.35978056 6.86065891 29.86443972 -4.2109375 17.62890625 C-14.88894907 7.90678655 -28.16892609 5.66215229 -42.109375 5.78515625 C-54.94049895 6.49370225 -65.22418177 11.44431615 -74.5625 20.140625 C-77.47926415 23.56221371 -79.53953693 27.06333955 -81.5625 31.0625 C-82.06438843 32.05310425 -82.06438843 32.05310425 -82.57641602 33.0637207 C-85.94390206 40.22151218 -86.1445199 47.63911922 -86.20532227 55.43554688 C-86.22017166 56.63698837 -86.22017166 56.63698837 -86.23532104 57.86270142 C-86.26663264 60.48135534 -86.291572 63.10002734 -86.31640625 65.71875 C-86.33700206 67.54578086 -86.35799918 69.37280725 -86.37937927 71.1998291 C-86.43432881 75.98698271 -86.48385663 80.77417736 -86.53222656 85.56140137 C-86.58264075 90.4550335 -86.63822241 95.3486067 -86.69335938 100.2421875 C-86.80060881 109.82807632 -86.90164816 119.41401576 -87 129 C-92.28 129 -97.56 129 -103 129 C-103 83.79 -103 38.58 -103 -8 C-97.72 -8 -92.44 -8 -87 -8 C-86.67 -1.4 -86.34 5.2 -86 12 C-85.13375 10.865625 -84.2675 9.73125 -83.375 8.5625 C-62.9404233 -14.53389531 -25.11968604 -16.42834284 0 0 Z " fill="#EFEEEC" transform="translate(714,584)"/>
<path d="M0 0 C8.11299031 6.72650229 15.58218046 14.23125545 20.32617188 23.71923828 C20.32617188 24.70923828 20.32617188 25.69923828 20.32617188 26.71923828 C7.10431213 28.51090811 7.10431213 28.51090811 2.64990234 25.63818359 C0.08249286 23.25072088 -2.00827551 20.52731114 -4.16601562 17.77392578 C-10.83342148 9.65256849 -22.43809168 5.26701013 -32.67382812 3.71923828 C-43.91480277 2.9158125 -54.13717533 3.35924402 -64.67382812 7.71923828 C-65.40601563 8.00798828 -66.13820313 8.29673828 -66.89257812 8.59423828 C-80.54008233 14.65979571 -89.25525733 26.46331008 -94.58007812 40.02783203 C-99.32270648 54.45332663 -97.39290249 70.0245313 -91.35351562 83.71142578 C-84.53711256 97.15799139 -74.16749649 105.45747373 -60.29882812 111.21923828 C-43.72778257 116.09824639 -26.81273714 113.33572517 -11.94335938 105.23095703 C-6.45817699 101.82224235 -0.5975209 97.2872757 2.50976562 91.52392578 C4.32617188 89.71923828 4.32617188 89.71923828 8.11914062 89.32861328 C9.58449418 89.35513552 11.04958738 89.40274711 12.51367188 89.46923828 C13.26326172 89.48728516 14.01285156 89.50533203 14.78515625 89.52392578 C16.63270898 89.57099719 18.47960346 89.64274063 20.32617188 89.71923828 C19.49202368 95.87656901 15.96685572 99.86237772 12.32617188 104.71923828 C11.58367187 105.75048828 10.84117187 106.78173828 10.07617188 107.84423828 C-2.42385028 120.91244326 -19.4281567 128.36529103 -37.35351562 128.96142578 C-58.88829865 129.32042472 -76.93009985 124.55700909 -92.86132812 109.15673828 C-107.49262297 94.31031172 -112.97071242 74.644331 -112.98852539 54.19702148 C-112.67681263 34.91694164 -104.24703427 18.92833458 -90.67382812 5.71923828 C-90.06667969 5.11466797 -89.45953125 4.51009766 -88.83398438 3.88720703 C-66.01539782 -17.25764457 -24.75493986 -18.9417174 0 0 Z " fill="#F1F0EE" transform="translate(359.673828125,586.28076171875)"/>
<path d="M0 0 C0.33 0 0.66 0 1 0 C1 6.6 1 13.2 1 20 C4.3 20.33 7.6 20.66 11 21 C11 21.33 11 21.66 11 22 C7.04 22 3.08 22 -1 22 C-1.02683201 18.52078265 -1.0467567 15.04176961 -1.0625 11.5625 C-1.07087891 10.56927734 -1.07925781 9.57605469 -1.08789062 8.55273438 C-1.09111328 7.60849609 -1.09433594 6.66425781 -1.09765625 5.69140625 C-1.10289307 4.81685791 -1.10812988 3.94230957 -1.11352539 3.04125977 C-1 1 -1 1 0 0 Z " fill="#F8F8F6" transform="translate(912,691)"/>
<path d="M0 0 C-1.42630308 3.33049122 -3.15014396 5.31738937 -5.875 7.6875 C-6.55304688 8.28949219 -7.23109375 8.89148438 -7.9296875 9.51171875 C-10.01065834 11.00766194 -11.49630826 11.5789756 -14 12 C-4.24783862 0 -4.24783862 0 0 0 Z " fill="#202123" transform="translate(459,598)"/>
<path d="M0 0 C0.66 0.33 1.32 0.66 2 1 C-1.96 4.96 -5.92 8.92 -10 13 C-10.66 12.67 -11.32 12.34 -12 12 C-10.56665422 10.37133456 -9.12817021 8.74719006 -7.6875 7.125 C-6.88699219 6.22007812 -6.08648437 5.31515625 -5.26171875 4.3828125 C-3 2 -3 2 0 0 Z " fill="#E4E3E2" transform="translate(444,589)"/>
<path d="M0 0 C-0.33 0.99 -0.66 1.98 -1 3 C-3.58203125 3.984375 -3.58203125 3.984375 -6.8125 4.75 C-7.87082031 5.01296875 -8.92914063 5.2759375 -10.01953125 5.546875 C-12.81733936 5.97222984 -14.37531844 5.94056385 -17 5 C-14.91999989 4.15838146 -12.83585854 3.32699237 -10.75 2.5 C-9.58984375 2.0359375 -8.4296875 1.571875 -7.234375 1.09375 C-4 0 -4 0 0 0 Z " fill="#242527" transform="translate(307,590)"/>
<path d="M0 0 C0 0.99 0 1.98 0 3 C-1.96466413 4.06775224 -3.96855359 5.06553465 -6 6 C-8 5 -8 5 -9 3 C-2.25 0 -2.25 0 0 0 Z " fill="#272829" transform="translate(889,707)"/>
<path d="M0 0 C0.33 0 0.66 0 1 0 C1.36263859 5.8022175 0.25684543 9.63999211 -2 15 C-3.31534494 11.34142468 -2.65468309 8.91973519 -1.5625 5.25 C-1.27503906 4.26515625 -0.98757812 3.2803125 -0.69140625 2.265625 C-0.46324219 1.51796875 -0.23507813 0.7703125 0 0 Z " fill="#D3D2D1" transform="translate(251,618)"/>
<path d="M0 0 C4.455 0.99 4.455 0.99 9 2 C8.67 2.66 8.34 3.32 8 4 C5.69 3.67 3.38 3.34 1 3 C0.67 2.01 0.34 1.02 0 0 Z " fill="#222325" transform="translate(329,590)"/>
<path d="M0 0 C0 3 0 3 -2.5 5.6875 C-3.325 6.450625 -4.15 7.21375 -5 8 C-5.66 7.34 -6.32 6.68 -7 6 C-4.69 4.02 -2.38 2.04 0 0 Z " fill="#2B2C2E" transform="translate(902,696)"/>
<path d="M0 0 C0.99 0 1.98 0 3 0 C2.67 1.98 2.34 3.96 2 6 C1.01 6.33 0.02 6.66 -1 7 C-0.67 4.69 -0.34 2.38 0 0 Z " fill="#E0E0DE" transform="translate(544,657)"/>
<path d="M0 0 C-0.33 0.99 -0.66 1.98 -1 3 C-3.5625 4.1875 -3.5625 4.1875 -6 5 C-6.66 4.34 -7.32 3.68 -8 3 C-2.25 0 -2.25 0 0 0 Z " fill="#262628" transform="translate(656,593)"/>
<path d="M0 0 C0 0.66 0 1.32 0 2 C-2.3125 2.625 -2.3125 2.625 -5 3 C-5.99 2.34 -6.98 1.68 -8 1 C-5.29120665 -0.35439668 -2.99066732 -0.06501451 0 0 Z " fill="#D6D6D5" transform="translate(842,575)"/>
</svg>
