<svg version="1.1" xmlns="http://www.w3.org/2000/svg" viewBox="950 420 110 350" width="100%" height="100%">
  <path d="M0 0 C2.31 0 4.62 0 7 0 C7.15039726 19.69741295 6.7426756 39.31909651 6 59 C11.94 59 17.88 59 24 59 C24 119.06 24 179.12 24 241 C18.06 241 12.12 241 6 241 C6 256.18 6 271.36 6 287 C3.69 287 1.38 287 -1 287 C-1 271.49 -1 255.98 -1 240 C-6.94 240 -12.88 240 -19 240 C-19 180.27 -19 120.54 -19 59 C-12.73 59 -6.46 59 0 59 C0 39.53 0 20.06 0 0 Z " fill="#79B78F" stroke="#79B78F" stroke-width="25" stroke-linejoin="round" stroke-linecap="round" transform="translate(1003,452)"/>
</svg>
