<?xml version="1.0" encoding="UTF-8"?>
<svg version="1.1" xmlns="http://www.w3.org/2000/svg" width="1254" height="1254">

<path d="M0 0 C5.61 0 11.22 0 17 0 C17 66.33 17 132.66 17 201 C11.39 201 5.78 201 0 201 C0 192.42 0 183.84 0 175 C-0.66 175 -1.32 175 -2 175 C-2.2475 175.556875 -2.495 176.11375 -2.75 176.6875 C-9.35542867 188.90754304 -24.79031852 197.22027874 -37.63671875 201.09765625 C-58.72965306 205.75847935 -80.77909803 204.64222758 -99.30078125 192.8671875 C-115.86521864 181.40871996 -129.02749128 165.22368075 -133 145 C-136.26232493 123.23563226 -133.80007486 103.38072818 -120.86328125 84.95703125 C-108.71220407 69.58263167 -92.53063137 58.31613489 -73 55 C-51.42798848 52.93275295 -30.54221286 56.588294 -13 70 C-3.1267525 78.74649499 -3.1267525 78.74649499 -1 83 C-0.67 55.61 -0.34 28.22 0 0 Z M-106.8125 94.375 C-116.7304169 107.77822261 -118.45839213 122.83216925 -117 139 C-114.57113566 153.7755914 -106.62592997 166.63725106 -95 176 C-80.97285149 185.46812633 -64.63003489 189.71686687 -47.80712891 186.59277344 C-32.78783731 183.02117557 -18.96682455 175.80645056 -10.25 162.75 C-1.34812193 147.8791132 2.46164026 132.39915553 -0.6875 115.2578125 C-5.71603736 97.78364518 -15.95931662 85.65799767 -31.6875 76.75 C-58.86356549 64.37715718 -87.80460032 71.42593754 -106.8125 94.375 Z " fill="#151517" transform="translate(924,493)"/>
<path d="M0 0 C2.31 0 4.62 0 7 0 C7.15039726 19.69741295 6.7426756 39.31909651 6 59 C11.94 59 17.88 59 24 59 C24 119.06 24 179.12 24 241 C18.06 241 12.12 241 6 241 C6 256.18 6 271.36 6 287 C3.69 287 1.38 287 -1 287 C-1 271.49 -1 255.98 -1 240 C-6.94 240 -12.88 240 -19 240 C-19 180.27 -19 120.54 -19 59 C-12.73 59 -6.46 59 0 59 C0 39.53 0 20.06 0 0 Z " fill="#79B78F" transform="translate(1003,452)"/>
<path d="M0 0 C19.42653836 -0.6567542 36.24303427 5.19001581 51.27734375 17.78125 C54.32208193 20.7118105 57.02713487 23.97892297 59.77734375 27.1875 C60.10734375 18.9375 60.43734375 10.6875 60.77734375 2.1875 C66.38734375 2.1875 71.99734375 2.1875 77.77734375 2.1875 C77.77734375 49.7075 77.77734375 97.2275 77.77734375 146.1875 C72.16734375 146.1875 66.55734375 146.1875 60.77734375 146.1875 C60.44734375 137.9375 60.11734375 129.6875 59.77734375 121.1875 C58.49859375 122.693125 57.21984375 124.19875 55.90234375 125.75 C47.91703979 134.56866122 38.76022116 139.78165207 27.77734375 144.1875 C26.75511719 144.60386719 25.73289062 145.02023437 24.6796875 145.44921875 C7.68216559 151.33535939 -13.17701652 149.98905429 -29.35131836 142.47094727 C-36.25253178 139.10889911 -42.51189236 135.36392341 -48.22265625 130.1875 C-48.95613281 129.55714844 -49.68960937 128.92679688 -50.4453125 128.27734375 C-63.09867749 116.66576525 -71.14248686 99.52741659 -72.42993164 82.43579102 C-73.13477231 61.33657889 -69.84642027 41.39578021 -55.22265625 25.1875 C-54.45566406 24.31738281 -53.68867188 23.44726562 -52.8984375 22.55078125 C-41.22081534 10.05487316 -24.91048307 0.99019369 -7.5390625 0.25 C-5.02040161 0.20253407 -2.51576978 0.11213594 0 0 Z M-41.4140625 33.9609375 C-52.46255261 47.56275038 -57.5234628 62.70791195 -56.22265625 80.1875 C-53.59134374 97.53771687 -46.30668165 111.55720058 -32.22265625 122.1875 C-21.18395557 129.23823078 -11.83352274 131.69219111 1.21484375 131.5625 C2.37822266 131.57410156 3.54160156 131.58570313 4.74023438 131.59765625 C19.46262386 131.54794644 33.16347297 126.35292444 44.0078125 116.125 C56.51601602 102.42948356 61.5786142 86.9644814 61.05859375 68.71484375 C60.7860884 63.20001673 59.85148931 58.31744781 57.77734375 53.1875 C57.39835937 52.2284375 57.019375 51.269375 56.62890625 50.28125 C50.56188456 36.67428805 39.94888328 26.4637894 26.21875 20.69140625 C2.84256396 11.95934946 -23.70142108 14.8857852 -41.4140625 33.9609375 Z " fill="#141516" transform="translate(482.22265625,547.8125)"/>
<path d="M0 0 C0.77730469 0.58394531 1.55460938 1.16789063 2.35546875 1.76953125 C3.08121094 2.30191406 3.80695313 2.83429687 4.5546875 3.3828125 C17.20227699 13.47679345 23.47134725 30.12153019 25.35546875 45.76953125 C25.83874241 52.73648565 25.7074337 59.72433275 25.6484375 66.703125 C25.642828 68.67708511 25.63856432 70.65104945 25.63557434 72.62501526 C25.62423204 77.76897125 25.59485884 82.9126648 25.5614624 88.05651855 C25.53052999 93.3260544 25.51701995 98.59563351 25.50195312 103.86523438 C25.46997679 114.16679932 25.41729825 124.46810219 25.35546875 134.76953125 C19.74546875 134.76953125 14.13546875 134.76953125 8.35546875 134.76953125 C8.3304126 132.1258252 8.30535645 129.48211914 8.27954102 126.75830078 C8.19584803 117.99721619 8.10719133 109.2361868 8.01612949 100.47517586 C7.96110126 95.1664132 7.90771486 89.85764487 7.8581543 84.54882812 C7.81021246 79.42000738 7.75786159 74.29124842 7.702528 69.16250229 C7.68223871 67.21144028 7.66350472 65.26036143 7.64639473 63.30926895 C7.62205055 60.56435346 7.59204113 57.81955145 7.56079102 55.07470703 C7.55503555 54.27844406 7.54928009 53.48218109 7.54335022 52.66178894 C7.47053072 46.98872286 6.99631859 41.40563643 6.35546875 35.76953125 C5.69546875 35.76953125 5.03546875 35.76953125 4.35546875 35.76953125 C4.16984375 34.96902344 4.16984375 34.96902344 3.98046875 34.15234375 C1.51508637 25.2461499 -3.66314442 18.30631955 -11.51953125 13.39453125 C-25.6886742 5.66391693 -40.96858003 2.83947235 -56.76953125 7.39453125 C-62.52385737 9.48969614 -67.63186336 12.26777389 -72.64453125 15.76953125 C-73.2684375 16.17429687 -73.89234375 16.5790625 -74.53515625 16.99609375 C-83.5991112 23.65115977 -88.72497431 36.0025602 -90.64453125 46.76953125 C-91.22843309 53.59569719 -91.13420073 60.46688571 -91.15625 67.3125 C-91.17312007 69.29219154 -91.1912734 71.27187252 -91.21064758 73.25154114 C-91.25790095 78.42828063 -91.28786927 83.60497729 -91.31408691 88.78186035 C-91.34401762 94.07796686 -91.39050462 99.37392614 -91.43554688 104.66992188 C-91.52129915 115.03639773 -91.58723583 125.40285902 -91.64453125 135.76953125 C-97.25453125 135.76953125 -102.86453125 135.76953125 -108.64453125 135.76953125 C-108.64453125 87.91953125 -108.64453125 40.06953125 -108.64453125 -9.23046875 C-103.03453125 -9.23046875 -97.42453125 -9.23046875 -91.64453125 -9.23046875 C-91.31453125 -2.30046875 -90.98453125 4.62953125 -90.64453125 11.76953125 C-87.67453125 8.30453125 -87.67453125 8.30453125 -84.64453125 4.76953125 C-60.572666 -15.05067988 -25.9571651 -18.02471828 0 0 Z " fill="#161718" transform="translate(719.64453125,559.23046875)"/>
<path d="M0 0 C10.10931283 7.25637792 17.77946496 15.63859243 23 27 C23 27.66 23 28.32 23 29 C6.77895855 30.22422954 6.77895855 30.22422954 2.8203125 27.5 C1.5 25.5 1.5 25.5 0.3203125 23.29296875 C-4.48005448 14.95623675 -14.37584427 11.06018429 -23 8 C-23.7528125 7.6803125 -24.505625 7.360625 -25.28125 7.03125 C-39.20459876 1.7364554 -55.71972934 4.41706091 -68.8828125 10.28515625 C-83.76388048 17.72569024 -93.15575668 29.68154856 -99 45 C-103.42083269 60.40975967 -101.22304146 77.66843565 -93.46484375 91.69921875 C-85.01629208 104.96907724 -73.08743671 113.7976939 -57.8125 117.8125 C-40.50408472 121.33903894 -23.01184547 118.35164144 -8 109 C-4.55075838 106.50088337 -1.13061968 103.98689177 1.00512695 100.23364258 C3.91306775 95.29370703 3.91306775 95.29370703 7.08618164 94.4362793 C9.52976569 94.31107844 11.87233066 94.38723922 14.3125 94.5625 C15.56643555 94.60987305 15.56643555 94.60987305 16.84570312 94.65820312 C18.89865506 94.7403212 20.94978898 94.86587405 23 95 C21.21986358 100.8334987 18.58232184 105.11804512 15 110 C14.50757813 110.67289063 14.01515625 111.34578125 13.5078125 112.0390625 C2.51780899 125.76289773 -15.78899585 134.08576717 -33 136 C-55.73776608 137.09508002 -75.16983672 134.19372339 -92.8984375 118.92578125 C-93.59195313 118.29027344 -94.28546875 117.65476562 -95 117 C-95.63164062 116.43667969 -96.26328125 115.87335938 -96.9140625 115.29296875 C-110.13012915 102.86287963 -117.5696066 85.38468517 -118.2734375 67.41015625 C-118.56103407 54.67574105 -118.14594217 43.73222438 -113 32 C-112.50371094 30.865625 -112.00742188 29.73125 -111.49609375 28.5625 C-103.25211697 11.71697637 -87.52186455 -1.9997341 -69.95092773 -8.48706055 C-46.68480089 -16.32943423 -20.56433497 -13.61226302 0 0 Z " fill="#141416" transform="translate(347,560)"/>
<path d="M0 0 C0.33 0 0.66 0 1 0 C1 8.58 1 17.16 1 26 C0.67 26 0.34 26 0 26 C-0.33 21.38 -0.66 16.76 -1 12 C-1.33 12 -1.66 12 -2 12 C-2 10.35 -2 8.7 -2 7 C-6.455 10.465 -6.455 10.465 -11 14 C-11.66 13.67 -12.32 13.34 -13 13 C-12.39671875 12.48050781 -11.7934375 11.96101562 -11.171875 11.42578125 C-7.05600238 7.83435046 -3.29156598 4.38875464 0 0 Z " fill="#EBEBEB" transform="translate(542,668)"/>
<path d="M0 0 C-4.26676458 4.08125308 -9.97342087 4.92724175 -15.70141602 5.06494141 C-18.49514582 4.97584527 -21.2741558 4.81903926 -24.0625 4.625 C-25.50399414 4.53992188 -25.50399414 4.53992188 -26.97460938 4.453125 C-29.31733744 4.31326064 -31.65871949 4.16204185 -34 4 C-34 3.67 -34 3.34 -34 3 C-33.38592285 2.98541748 -32.7718457 2.97083496 -32.13916016 2.95581055 C-29.30054015 2.88038055 -26.46297742 2.78404224 -23.625 2.6875 C-22.65949219 2.66494141 -21.69398438 2.64238281 -20.69921875 2.61914062 C-14.72776496 2.39871783 -9.61458045 1.53556565 -3.97412109 -0.46557617 C-2 -1 -2 -1 0 0 Z " fill="#4C4D4E" transform="translate(509,676)"/>
<path d="M0 0 C0.33 0 0.66 0 1 0 C1 8.58 1 17.16 1 26 C-0.65 24.35 -2.3 22.7 -4 21 C-3.01 20.34 -2.02 19.68 -1 19 C-0.49378487 16.97723319 -0.49378487 16.97723319 -0.48828125 14.6484375 C-0.43510742 13.37226562 -0.43510742 13.37226562 -0.38085938 12.0703125 C-0.35830078 11.18085937 -0.33574219 10.29140625 -0.3125 9.375 C-0.27833984 8.4778125 -0.24417969 7.580625 -0.20898438 6.65625 C-0.12637598 4.43762462 -0.05727281 2.2194006 0 0 Z " fill="#ECEDED" transform="translate(542,550)"/>
<path d="M0 0 C0.33 0 0.66 0 1 0 C1 5.61 1 11.22 1 17 C2.32 16.67 3.64 16.34 5 16 C3.63016497 19.16115776 3.0109362 19.9927092 0 22 C0 14.74 0 7.48 0 0 Z " fill="#E5E5E6" transform="translate(628,550)"/>
<path d="M0 0 C0.33 0 0.66 0 1 0 C1 5.28 1 10.56 1 16 C1.66 16 2.32 16 3 16 C2.625 18.9375 2.625 18.9375 2 22 C1.34 22.33 0.68 22.66 0 23 C0 15.41 0 7.82 0 0 Z " fill="#F6F5F6" transform="translate(941,671)"/>
<path d="M0 0 C0 0.66 0 1.32 0 2 C-1.56215548 2.16986545 -3.1247452 2.33573964 -4.6875 2.5 C-5.99267578 2.63921875 -5.99267578 2.63921875 -7.32421875 2.78125 C-9.89723339 2.99159864 -12.41984364 3.03719144 -15 3 C-10.18516016 -0.20989323 -5.65377662 -1.71326564 0 0 Z " fill="#242425" transform="translate(669,550)"/>
<path d="M0 0 C0.66 0.99 1.32 1.98 2 3 C1.67 3.33 1.34 3.66 1 4 C1 4.99 1 5.98 1 7 C-0.17148276 9.44233235 -1.59736658 11.67688841 -3 14 C-3.66 14 -4.32 14 -5 14 C-3.45730076 9.27934033 -1.92205381 4.58335908 0 0 Z " fill="#333435" transform="translate(921,638)"/>
<path d="M0 0 C0.66 0.66 1.32 1.32 2 2 C1.53846154 8.46153846 1.53846154 8.46153846 -1 11 C-2.60080151 6.99799622 -1.29279692 3.95443764 0 0 Z " fill="#232425" transform="translate(541,635)"/>
<path d="M0 0 C-1.51671964 4.55015893 -5.16891053 6.50057264 -9 9 C-8.23445316 4.5768405 -4.94434503 0 0 0 Z " fill="#1C1D1E" transform="translate(642,560)"/>
<path d="M0 0 C3.37462715 0.54723683 5.08235 1.0549 8 3 C8 3.66 8 4.32 8 5 C2.25 3.125 2.25 3.125 0 2 C0 1.34 0 0.68 0 0 Z " fill="#2B2C2C" transform="translate(699,566)"/>
<path d="M0 0 C0.99 0.33 1.98 0.66 3 1 C1.71034824 2.37562854 0.37310707 3.70766393 -1 5 C-1.66 5 -2.32 5 -3 5 C-3 5.66 -3 6.32 -3 7 C-3.66 6.67 -4.32 6.34 -5 6 C-3.35 4.02 -1.7 2.04 0 0 Z " fill="#1D1D1E" transform="translate(248,571)"/>
<path d="M0 0 C7.42857143 -0.28571429 7.42857143 -0.28571429 11 2 C11 2.66 11 3.32 11 4 C7.37 3.01 3.74 2.02 0 1 C0 0.67 0 0.34 0 0 Z " fill="#39393A" transform="translate(321,566)"/>
<path d="M0 0 C2.375 0.3125 2.375 0.3125 5 1 C5.66 1.99 6.32 2.98 7 4 C5.68 4 4.36 4 3 4 C1.25 2 1.25 2 0 0 Z " fill="#272829" transform="translate(721,563)"/>
<path d="M0 0 C-2 2 -2 2 -4.625 2.125 C-5.40875 2.08375 -6.1925 2.0425 -7 2 C-7.33 1.34 -7.66 0.68 -8 0 C-4.71023192 -1.09658936 -3.28696233 -0.79953138 0 0 Z " fill="#1F2021" transform="translate(892,691)"/>
</svg>
